<svg width="64" height="65" viewBox="0 0 64 65" fill="none" xmlns="http://www.w3.org/2000/svg">
<rect y="0.5" width="64" height="64" rx="32" fill="black"/>
<path d="M46.6094 19.2026C46.5978 19.18 46.5784 19.1623 46.5549 19.1526C43.8318 17.9032 40.9581 17.0123 38.0058 16.5022C37.979 16.4972 37.9513 16.5008 37.9267 16.5125C37.902 16.5241 37.8816 16.5433 37.8685 16.5672C37.4772 17.2774 37.122 18.0069 36.8042 18.7529C33.6218 18.2698 30.3847 18.2698 27.2023 18.7529C26.8824 18.005 26.5215 17.2753 26.1212 16.5672C26.1075 16.5438 26.0871 16.5251 26.0625 16.5135C26.038 16.5019 26.0106 16.498 25.9838 16.5022C23.0312 17.0113 20.1574 17.9022 17.4346 19.1527C17.4113 19.1626 17.3917 19.1794 17.3784 19.201C11.9334 27.3323 10.4418 35.2637 11.1736 43.0968C11.1756 43.116 11.1815 43.1346 11.1909 43.1515C11.2003 43.1684 11.213 43.1832 11.2282 43.195C14.3987 45.5426 17.945 47.3345 21.7157 48.4943C21.7423 48.5022 21.7706 48.5019 21.797 48.4933C21.8233 48.4846 21.8464 48.4681 21.8631 48.446C22.673 47.344 23.3906 46.1772 24.0086 44.9573C24.0171 44.9405 24.0219 44.9222 24.0228 44.9034C24.0237 44.8847 24.0206 44.866 24.0137 44.8485C24.0069 44.831 23.9964 44.8152 23.9829 44.8021C23.9695 44.789 23.9534 44.7789 23.9358 44.7724C22.8042 44.3394 21.7087 43.8175 20.6595 43.2115C20.6405 43.2003 20.6245 43.1845 20.6129 43.1657C20.6014 43.1468 20.5946 43.1254 20.5933 43.1034C20.592 43.0813 20.5962 43.0592 20.6054 43.0392C20.6147 43.0191 20.6287 43.0016 20.6463 42.9882C20.8671 42.8233 21.084 42.6533 21.2969 42.4784C21.3156 42.463 21.3382 42.4532 21.3622 42.4499C21.3862 42.4467 21.4106 42.4502 21.4327 42.4601C28.3062 45.5971 35.7477 45.5971 42.5399 42.4601C42.562 42.4496 42.5867 42.4456 42.611 42.4485C42.6353 42.4515 42.6583 42.4613 42.6773 42.4768C42.8905 42.6526 43.108 42.8231 43.3296 42.9882C43.3473 43.0014 43.3614 43.0188 43.3708 43.0388C43.3802 43.0588 43.3845 43.0809 43.3834 43.1029C43.3822 43.125 43.3757 43.1464 43.3643 43.1654C43.3529 43.1843 43.337 43.2001 43.318 43.2115C42.2712 43.8226 41.1747 44.3442 40.0401 44.7708C40.0225 44.7775 40.0065 44.7878 39.9932 44.8011C39.9798 44.8144 39.9694 44.8304 39.9627 44.848C39.956 44.8656 39.953 44.8845 39.954 44.9033C39.9551 44.9221 39.9601 44.9405 39.9687 44.9573C40.5971 46.1704 41.3136 47.3358 42.1126 48.4441C42.1288 48.4668 42.1517 48.4839 42.1782 48.4928C42.2046 48.5018 42.2332 48.5022 42.2599 48.4941C46.0374 47.3382 49.5899 45.5461 52.7644 43.195C52.7798 43.1838 52.7927 43.1693 52.8021 43.1527C52.8116 43.136 52.8173 43.1175 52.819 43.0985C53.695 34.0425 51.3525 26.1761 46.6094 19.2026ZM25.0351 38.3272C22.9657 38.3272 21.2605 36.4282 21.2605 34.0959C21.2605 31.7636 22.9326 29.8644 25.0351 29.8644C27.154 29.8644 28.8427 31.7801 28.8096 34.0957C28.8096 36.4282 27.1375 38.3272 25.0351 38.3272ZM38.9908 38.3272C36.9215 38.3272 35.2163 36.4282 35.2163 34.0959C35.2163 31.7636 36.8884 29.8644 38.9908 29.8644C41.1099 29.8644 42.7985 31.7801 42.7654 34.0957C42.7654 36.4282 41.1099 38.3272 38.9908 38.3272Z" fill="white"/>
</svg>
