<svg width="64" height="65" viewBox="0 0 64 65" fill="none" xmlns="http://www.w3.org/2000/svg">
<rect y="0.5" width="64" height="64" rx="32" fill="black"/>
<path d="M15.7874 33.0751L15.9255 32.8582L24.2499 19.8356C24.3716 19.6449 24.6576 19.6647 24.7497 19.8718C26.1403 22.9886 27.3404 26.8647 26.7782 29.2779C26.5382 30.2707 25.8806 31.6155 25.1409 32.8582C25.0456 33.039 24.9403 33.2166 24.8285 33.3875C24.776 33.4664 24.6872 33.5125 24.5918 33.5125H16.0307C15.8005 33.5125 15.6658 33.2626 15.7874 33.0751Z" fill="white"/>
<path d="M52.8924 35.495V37.5564C52.8924 37.6747 52.82 37.7799 52.7148 37.8259C52.0705 38.1021 49.8644 39.1147 48.9471 40.3903C46.6063 43.6484 44.8178 48.3071 40.8199 48.3071H24.1414C18.2302 48.3071 13.44 43.5005 13.44 37.5695V37.3788C13.44 37.221 13.5682 37.0928 13.726 37.0928H23.0236C23.2077 37.0928 23.3425 37.2637 23.3261 37.4446C23.2603 38.0495 23.3721 38.6676 23.6581 39.2298C24.2105 40.3509 25.3546 41.0512 26.5907 41.0512H31.1936V37.4577H26.6434C26.4099 37.4577 26.2719 37.1881 26.4066 36.9974C26.456 36.9218 26.5119 36.8429 26.5711 36.7541C27.0017 36.1427 27.6165 35.1925 28.228 34.1108C28.6456 33.381 29.05 32.6018 29.3755 31.8193C29.4412 31.678 29.4938 31.5333 29.5464 31.3919C29.6352 31.1421 29.7272 30.9086 29.7929 30.6752C29.8587 30.478 29.9113 30.2708 29.964 30.0768C30.1185 29.4127 30.1842 28.7091 30.1842 27.9793C30.1842 27.6933 30.171 27.3941 30.1447 27.108C30.1317 26.7957 30.0922 26.4834 30.0527 26.1711C30.0264 25.8949 29.9771 25.622 29.9245 25.336C29.8587 24.9184 29.7667 24.5042 29.6615 24.0866L29.6253 23.9289C29.5464 23.6428 29.4806 23.3699 29.3886 23.0839C29.1288 22.1863 28.8297 21.3118 28.5141 20.4932C28.399 20.1677 28.2675 19.8554 28.136 19.5431C27.942 19.0729 27.7447 18.6455 27.5639 18.2411C27.4719 18.057 27.393 17.8893 27.3141 17.7184C27.2253 17.5244 27.1333 17.3305 27.0412 17.1463C26.9755 17.0049 26.8998 16.8734 26.8472 16.7419L26.285 15.703C26.2061 15.5616 26.3376 15.394 26.4921 15.4367L30.01 16.3902H30.0199C30.0264 16.3902 30.0297 16.3934 30.033 16.3934L30.4965 16.5216L31.0062 16.6663L31.1936 16.7189V14.628C31.1936 13.6186 32.0023 12.8 33.0018 12.8C33.5015 12.8 33.9552 13.0038 34.2807 13.3359C34.6062 13.668 34.81 14.1216 34.81 14.628V17.7315L35.1848 17.8367C35.2144 17.8466 35.244 17.8597 35.2703 17.8794C35.3624 17.9485 35.4938 18.0505 35.6615 18.1753C35.793 18.2806 35.9344 18.4088 36.1054 18.5403C36.444 18.8132 36.8484 19.165 37.2922 19.5693C37.4106 19.6713 37.5256 19.7765 37.6309 19.8817C38.2029 20.4143 38.844 21.039 39.4555 21.7294C39.6265 21.9233 39.7941 22.1206 39.9651 22.3277C40.1361 22.5381 40.3169 22.7453 40.4747 22.9524C40.6818 23.2286 40.9054 23.5146 41.0994 23.8138C41.1914 23.9552 41.2966 24.0998 41.3854 24.2412C41.6353 24.6193 41.8556 25.0105 42.066 25.4017C42.1547 25.5825 42.2468 25.7798 42.3257 25.9738C42.5591 26.4965 42.7433 27.0291 42.8616 27.5618C42.8978 27.6768 42.924 27.8018 42.9372 27.9136V27.9398C42.9766 28.0977 42.9898 28.2653 43.003 28.4363C43.0556 28.982 43.0293 29.5278 42.9109 30.0768C42.8616 30.3103 42.7958 30.5305 42.7169 30.764C42.638 30.9875 42.5591 31.2209 42.4572 31.4412C42.2599 31.8982 42.0265 32.3552 41.7503 32.7826C41.6616 32.9404 41.5563 33.1081 41.4512 33.2659C41.3361 33.4335 41.2177 33.5914 41.1125 33.7459C40.9679 33.9432 40.8134 34.1503 40.6555 34.3344C40.5141 34.5284 40.3695 34.7224 40.2117 34.8933C39.9914 35.153 39.781 35.3996 39.5608 35.6364C39.4292 35.7909 39.2878 35.9487 39.1432 36.09C39.0018 36.2478 38.8572 36.3892 38.7256 36.5207C38.5054 36.741 38.3213 36.9119 38.1668 37.0533L37.8051 37.3854C37.7525 37.4314 37.6834 37.4577 37.6111 37.4577H34.81V41.0512H38.3344C39.1235 41.0512 39.8731 40.7717 40.478 40.2589C40.6851 40.078 41.5893 39.2955 42.6578 38.1153C42.6939 38.0758 42.7399 38.0462 42.7925 38.0331L52.5274 35.2188C52.7083 35.1662 52.8924 35.3043 52.8924 35.495Z" fill="white"/></svg>