<svg width="64" height="65" viewBox="0 0 64 65" fill="none" xmlns="http://www.w3.org/2000/svg">
<rect y="0.5" width="64" height="64" rx="32" fill="black"/>
<path d="M52 20.2958C50.529 20.9372 48.9488 21.3706 47.2876 21.5665C49.0017 20.5572 50.2841 18.9686 50.8954 17.0973C49.285 18.0386 47.5225 18.7012 45.6845 19.0562C44.4485 17.7575 42.8113 16.8967 41.0273 16.6075C39.2432 16.3182 37.412 16.6167 35.8179 17.4566C34.2239 18.2964 32.9562 19.6307 32.2117 21.2522C31.4672 22.8738 31.2875 24.6918 31.7005 26.4241C28.4374 26.2629 25.2452 25.4282 22.3311 23.9744C19.4169 22.5205 16.846 20.4798 14.7852 17.9849C14.0805 19.1811 13.6753 20.568 13.6753 22.045C13.6745 23.3747 14.0073 24.684 14.644 25.8568C15.2808 27.0295 16.2018 28.0295 17.3255 28.768C16.0223 28.7272 14.7479 28.3806 13.6084 27.7573V27.8613C13.6083 29.7262 14.2638 31.5337 15.4637 32.9772C16.6637 34.4206 18.3341 35.4111 20.1917 35.7804C18.9828 36.1024 17.7154 36.1498 16.4852 35.9191C17.0092 37.5238 18.0301 38.927 19.4049 39.9323C20.7796 40.9376 22.4394 41.4948 24.1519 41.5256C21.2448 43.7714 17.6547 44.9896 13.959 44.9842C13.3043 44.9844 12.6502 44.9468 12 44.8715C15.7514 47.2451 20.1183 48.5049 24.5782 48.5C39.6755 48.5 47.9288 36.1948 47.9288 25.5226C47.9288 25.1759 47.92 24.8257 47.9042 24.479C49.5095 23.3365 50.8953 21.9217 51.9965 20.301L52 20.2958Z" fill="white"/>
</svg>
